<svg xmlns="http://www.w3.org/2000/svg" viewBox="0 0 110 110">
  <defs>
    <linearGradient id="a" x1="12.959" y1="12.038" x2="52.694" y2="53.406" gradientUnits="userSpaceOnUse">
      <stop offset="0" stop-color="#387eb8"/>
      <stop offset="1" stop-color="#366994"/>
    </linearGradient>
    <linearGradient id="b" x1="47.684" y1="56.281" x2="89.763" y2="98.259" gradientUnits="userSpaceOnUse">
      <stop offset="0" stop-color="#ffc836"/>
      <stop offset="1" stop-color="#f0c14e"/>
    </linearGradient>
  </defs>
  <path d="M54.3 7.3c-23.7 0-22.2 10.3-22.2 10.3l.03 10.7h22.6v3.2H20.7S7.3 29.3 7.3 53.2c0 23.9 11.7 23 11.7 23h7v-11.1s-.4-11.7 11.5-11.7h19.8s11.2.2 11.2-10.8V18.9S70.6 7.3 54.3 7.3zm-11 6.7c2 0 3.6 1.6 3.6 3.6s-1.6 3.6-3.6 3.6-3.6-1.6-3.6-3.6 1.6-3.6 3.6-3.6z" fill="url(#a)"/>
  <path d="M55.7 102.7c23.7 0 22.2-10.3 22.2-10.3l-.03-10.7H55.3v-3.2h34.1s13.3 2.2 13.3-21.7-11.7-23-11.7-23h-7v11.1s.4 11.7-11.5 11.7H52.6s-11.2-.2-11.2 10.8v23.7s-2.1 11.6 14.3 11.6zm11-6.7c-2 0-3.6-1.6-3.6-3.6s1.6-3.6 3.6-3.6 3.6 1.6 3.6 3.6-1.6 3.6-3.6 3.6z" fill="url(#b)"/>
</svg>
